HIERARCHY
ROOT Hips
{
	OFFSET -3.958830 18.904000 13.208200
	CHANNELS 6 Xposition Yposition Zposition Zrotation Yrotation Xrotation 
	JOINT LHipJoint
	{
		OFFSET 0.000000 0.000000 0.000000
		CHANNELS 3 Zrotation Yrotation Xrotation
		JOINT LeftUpLeg
		{
			OFFSET 1.800000 -1.400000 0.085000
			CHANNELS 3 Zrotation Yrotation Xrotation
			JOINT LeftLeg
			{
				OFFSET 2.215000 -6.000000 0.000000
				CHANNELS 3 Zrotation Yrotation Xrotation
				JOINT LeftFoot
				{
					OFFSET 2.500000 -6.900000 0.000000
					CHANNELS 3 Zrotation Yrotation Xrotation
					JOINT LeftToeBase
					{
						OFFSET 0.200000 -0.500000 1.950000
						CHANNELS 3 Zrotation Yrotation Xrotation
						End Site
						{
							OFFSET 0.000000 0.000000 0.000000
						}
					}
				}
			}
		}
	}
	JOINT RHipJoint
	{
		OFFSET 0.000000 0.000000 0.000000
		CHANNELS 3 Zrotation Yrotation Xrotation
		JOINT RightUpLeg
		{
			OFFSET -1.800000 -1.400000 0.085000
			CHANNELS 3 Zrotation Yrotation Xrotation
			JOINT RightLeg
			{
				OFFSET -2.215000 -6.000000 0.000000
				CHANNELS 3 Zrotation Yrotation Xrotation
				JOINT RightFoot
				{
					OFFSET -2.500000 -6.900000 0.000000
					CHANNELS 3 Zrotation Yrotation Xrotation
					JOINT RightToeBase
					{
						OFFSET -0.200000 -0.500000 1.950000
						CHANNELS 3 Zrotation Yrotation Xrotation
						End Site
						{
							OFFSET 0.000000 0.000000 0.000000
						}
					}
				}
			}
		}
	}
	JOINT LowerBack
	{
		OFFSET 0.000000 0.000000 0.000000
		CHANNELS 3 Zrotation Yrotation Xrotation
		JOINT Spine
		{
			OFFSET -0.087000 1.940000 -0.288900
			CHANNELS 3 Zrotation Yrotation Xrotation
			JOINT Spine1
			{
				OFFSET 0.000000 1.950000 0.060000
				CHANNELS 3 Zrotation Yrotation Xrotation
				JOINT Neck
				{
					OFFSET 0.000000 0.000000 0.000000
					CHANNELS 3 Zrotation Yrotation Xrotation
					JOINT Neck1
					{
						OFFSET 0.000000 1.600000 0.340000
						CHANNELS 3 Zrotation Yrotation Xrotation
						JOINT Head
						{
							OFFSET 0.000000 1.667000 -0.240000
							CHANNELS 3 Zrotation Yrotation Xrotation
							End Site
							{
								OFFSET 0.000000 0.000000 0.000000
							}
						}
					}
				}
				JOINT LeftShoulder
				{
					OFFSET 0.000000 0.000000 0.000000
					CHANNELS 3 Zrotation Yrotation Xrotation
					JOINT LeftArm
					{
						OFFSET 2.700000 1.550000 -0.730000
						CHANNELS 3 Zrotation Yrotation Xrotation
						JOINT LeftForeArm
						{
							OFFSET 5.450000 0.000000 0.000000
							CHANNELS 3 Zrotation Yrotation Xrotation
							JOINT LeftHand
							{
								OFFSET 3.450000 0.000000 0.000000
								CHANNELS 3 Zrotation Yrotation Xrotation
								JOINT LeftHandIndex1
								{
									OFFSET 0.750000 0.000000 0.000000
									CHANNELS 3 Zrotation Yrotation Xrotation
									End Site
									{
										OFFSET 0.000000 0.000000 0.000000
									}
								}
							}
						}
					}
				}
				JOINT RightShoulder
				{
					OFFSET 0.000000 0.000000 0.000000
					CHANNELS 3 Zrotation Yrotation Xrotation
					JOINT RightArm
					{
						OFFSET -2.700000 1.550000 -0.730000
						CHANNELS 3 Zrotation Yrotation Xrotation
						JOINT RightForeArm
						{
							OFFSET -5.450000 0.000000 0.000000
							CHANNELS 3 Zrotation Yrotation Xrotation
							JOINT RightHand
							{
								OFFSET -3.450000 0.000000 0.000000
								CHANNELS 3 Zrotation Yrotation Xrotation
								JOINT RightHandIndex1
								{
									OFFSET -0.750000 0.000000 0.000000
									CHANNELS 3 Zrotation Yrotation Xrotation
									End Site
									{
										OFFSET 0.000000 0.000000 0.000000
									}
								}
							}
						}
					}
				}
			}
		}
	}
}
MOTION
Frames: 13
Frame Time: 0.016667
1.294210 16.587160 -8.496490 2.878807 56.929958 -1.122985 -15.829719 13.484221 3.757838 -2.884449 0.969353 6.308855 -10.259221 4.714505 -5.501432 0.521306 4.701533 3.000470 0.026570 -0.065760 0.071050 17.950057 -8.966371 3.270342 27.116408 -2.366155 -29.088537 -67.334749 6.488025 20.085538 -1.698051 -8.822594 1.310261 -0.076460 -0.020510 0.028570 -2.823289 -5.790785 -8.465235 6.896698 -11.619625 10.098419 -9.385665 -9.615599 5.723446 5.989001 -1.699523 -11.772837 -13.725576 -1.532433 46.604327 -0.432290 -6.602600 1.944040 -10.346816 -9.589543 0.021304 -51.445098 -30.979110 9.835930 7.007673 -2.226707 -0.825383 -3.861815 2.950108 0.140300 -0.070890 0.047790 -0.018950 -1.356076 6.735569 11.315339 49.240833 -19.694820 -10.181972 -2.893783 4.601170 0.189307 2.875963 -0.986033 -0.001960 0.019000 0.021850 -0.009810 
1.275820 16.591470 -8.491660 2.264150 56.038537 -1.892487 -15.814794 13.556487 3.735555 -2.698970 1.005001 5.984519 -9.742005 4.793631 -4.752130 0.484122 4.648182 3.016191 0.042560 -0.045980 0.077160 17.942597 -9.047365 3.254218 26.620485 -2.569607 -28.273952 -64.817951 6.783854 21.484913 -1.655502 -8.678580 1.349429 -0.058240 -0.018550 0.030500 -2.840759 -5.754649 -8.428261 6.715261 -11.769055 10.638483 -8.999533 -9.786092 6.147166 5.589016 -1.440396 -11.938893 -13.090322 -1.745743 46.657395 -0.315530 -6.578740 1.651850 -9.342284 -10.276936 0.281021 -48.167019 -31.568055 9.911449 6.304708 -1.813502 -0.703369 -3.884425 2.932038 0.138220 -0.067030 0.046390 -0.013730 -1.599596 7.201438 11.297417 47.057593 -18.522929 -9.016635 -3.105245 1.233223 0.346179 2.940745 -0.971079 -0.002880 0.022810 0.017330 -0.010800 
1.257600 16.606880 -8.490170 1.409420 53.956436 -3.008304 -15.794596 13.664441 3.699883 -2.299674 1.050619 5.318895 -9.528649 4.993875 -3.296910 0.455010 4.587451 3.037059 0.045680 -0.033870 0.074200 17.922722 -9.185995 3.238980 25.146450 -2.509683 -26.667229 -59.532135 7.398093 24.433633 -1.551884 -8.361089 1.443221 -0.048250 -0.006730 0.035120 -2.834447 -5.632351 -8.378605 6.089424 -11.840148 11.407848 -8.149287 -9.972466 7.219517 5.062453 -0.740699 -12.574323 -11.236496 -1.790610 46.896586 -0.113870 -5.866670 2.043320 -7.852551 -11.821571 1.114745 -42.465601 -30.980170 8.898657 6.116320 -1.688345 -0.607872 -3.915325 2.919727 0.119420 -0.049850 0.038250 -0.008220 -2.109980 8.373679 11.537015 43.289896 -16.333893 -7.523998 -1.660797 -0.457616 0.247425 2.960509 -0.975947 -0.000680 0.016980 0.012820 -0.007390 
1.243690 16.621540 -8.486600 1.176085 52.085879 -3.650309 -15.779101 13.807771 3.675997 -1.970300 1.101375 4.386854 -9.926872 5.361760 -1.054208 0.423599 4.575012 3.047890 0.038460 -0.038410 0.058670 17.879476 -9.441582 3.124343 22.021033 -2.316225 -25.066866 -51.730136 7.834323 29.323828 -1.388443 -7.948588 1.568835 -0.040620 0.022020 0.040170 -2.839072 -5.421608 -8.262242 5.346587 -11.528548 12.183652 -7.058241 -9.856561 7.924105 4.416850 -0.366552 -12.740050 -9.862771 -2.362509 46.413056 -0.285870 -5.880470 2.643410 -6.506704 -12.231302 1.431697 -36.801573 -30.363085 8.098710 5.465659 -1.399236 -0.472408 -3.966301 2.898412 0.087220 -0.020990 0.011350 -0.001640 -2.173690 8.770082 11.627937 38.700174 -14.397677 -5.955360 -0.592835 -2.528686 0.143032 2.990996 -0.983971 -0.003850 0.016160 0.017790 0.001080 
1.222530 16.631420 -8.479120 0.882666 49.971142 -4.240747 -15.754085 13.967959 3.630804 -1.627675 1.058068 3.160261 -10.257947 5.800960 1.800328 0.395328 4.569135 3.055835 0.034310 -0.036200 0.033190 17.844352 -9.718123 2.961434 18.423715 -1.964231 -23.289070 -42.434991 6.949034 33.711735 -1.149028 -7.245787 1.787394 -0.030510 0.053650 0.041470 -2.897078 -5.215728 -8.082037 4.853394 -11.538321 12.749085 -6.168208 -10.016958 8.941847 3.571265 -0.656201 -13.034924 -9.482687 -2.297411 45.028297 -0.095620 -5.766010 2.905570 -4.435413 -12.079033 2.219318 -31.175825 -27.890506 6.679729 4.973262 -2.232533 -0.370340 -3.969057 2.908982 0.055610 0.000670 -0.016400 0.012660 -2.604086 9.131581 11.509076 33.696108 -11.386311 -4.361298 -0.001367 -3.463742 0.017036 3.009597 -1.010015 -0.006180 0.017170 0.020720 0.016070 
1.213460 16.635980 -8.470270 0.445694 48.107365 -4.799947 -15.736404 14.081138 3.624494 -0.999334 0.889626 2.382089 -10.924558 6.217899 4.060977 0.380634 4.654713 3.026680 0.031380 -0.036700 0.039120 17.802187 -9.980895 2.798882 14.950685 -1.524789 -22.099718 -34.695183 5.377745 36.684768 -0.940384 -6.604212 1.989254 -0.024360 0.063760 0.045800 -2.908481 -4.964514 -7.969410 4.371524 -11.170957 13.375447 -5.438483 -9.863738 9.548987 3.302457 -0.001623 -13.253251 -7.268587 -2.485576 44.005321 -0.189520 -4.932230 2.525190 -3.391937 -11.907856 2.831001 -25.068292 -25.048196 5.055070 4.836577 -3.882520 -0.309573 -3.964941 2.897240 0.048100 0.017590 -0.023540 0.009340 -3.156561 8.777188 11.446753 28.913189 -9.824199 -3.289108 0.429932 -1.350117 -0.137942 2.954429 -1.025562 -0.013690 0.019210 0.022600 0.009470 
1.212670 16.636440 -8.459730 0.181663 45.122782 -5.350864 -15.696670 14.122044 3.560902 -0.987580 0.818592 1.649421 -10.591476 6.531255 6.650316 0.360905 4.676919 3.024210 0.036240 -0.017150 0.024800 17.803277 -10.213107 2.684059 11.927232 -0.852083 -20.835038 -28.071203 3.687958 38.733398 -0.770430 -6.119136 2.157073 -0.004250 0.094180 0.045580 -3.020247 -4.606547 -7.841777 4.505954 -10.769012 13.888610 -5.405445 -9.457332 10.391677 3.018633 -0.107129 -13.242753 -6.420110 -2.109934 42.545430 -0.030700 -4.290120 2.201950 -1.730702 -10.698817 3.398740 -20.479127 -21.650524 3.763709 5.366006 -4.974129 -0.272301 -3.963897 2.911410 0.022810 0.042720 -0.042450 0.024590 -4.290951 8.100387 11.043082 24.181244 -6.901324 -2.096705 0.002429 2.982576 -0.158169 2.849533 -1.090577 -0.018460 0.032340 0.019880 0.020050 
1.222080 16.637520 -8.468260 -0.427618 41.912275 -6.188936 -15.653160 14.133467 3.511344 -0.809029 0.715586 1.142228 -10.336250 6.769588 8.640521 0.373366 4.721508 3.014669 0.027980 -0.012340 0.004620 17.814484 -10.402213 2.593159 9.143758 -0.129627 -19.748629 -21.830379 1.733277 40.359622 -0.630551 -5.792604 2.271504 0.000510 0.118690 0.053210 -3.112440 -4.253769 -7.762099 5.280693 -9.942503 14.556670 -4.919944 -8.641619 11.643213 2.910002 -0.419248 -13.566105 -6.130277 -1.949310 40.968140 -0.541160 -3.810180 2.473040 0.468165 -9.996650 4.076905 -17.173806 -19.095484 3.330112 4.869501 -4.511500 -0.135100 -3.980416 2.933785 -0.017160 0.070860 -0.062900 0.034320 -6.282732 8.270114 11.094256 19.901350 -5.350000 -1.468402 0.858483 10.274597 0.083195 2.673499 -1.210767 -0.011370 0.025560 0.018830 0.035560 
1.235520 16.651920 -8.498530 -0.792560 37.506092 -7.478397 -15.588277 14.073846 3.456388 -1.054557 0.786122 1.261505 -9.344193 6.837068 10.379220 0.399678 4.720513 3.024542 0.032230 0.006910 -0.004400 17.853726 -10.629021 2.521883 6.494731 0.513239 -18.320266 -17.010851 0.101068 41.460417 -0.559163 -5.691560 2.309616 0.009880 0.134450 0.058870 -3.246787 -3.708288 -7.697757 6.526014 -8.327667 16.043726 -4.863224 -6.834524 13.859838 2.930378 -0.616448 -14.356719 -5.641456 -2.398942 39.287701 -0.713780 -4.048890 2.405400 5.665695 -9.537494 4.974902 -16.909084 -18.261930 3.920582 3.645683 -2.721675 -0.008612 -3.991838 2.946393 -0.056050 0.084940 -0.071060 0.050310 -11.549595 8.968775 11.745703 20.375857 -2.748383 -0.955114 -0.060399 13.064076 0.238522 2.605784 -1.312465 0.003210 0.022630 0.004090 0.058310 
1.224930 16.681550 -8.495290 -1.432032 31.191553 -7.522537 -15.475839 13.943383 3.332730 -0.829051 0.582683 -0.103934 -8.579731 6.833737 12.110020 0.352294 4.634095 3.043225 -0.009420 -0.054070 -0.001740 17.941521 -10.792183 2.626042 5.113001 1.838189 -17.848177 -13.648015 -0.726732 41.179792 -0.485020 -5.499674 2.378333 -0.027030 0.130760 0.052210 -3.452189 -3.044179 -7.731557 8.216212 -6.609203 16.393123 -4.876261 -4.933674 13.655042 3.177199 -0.787969 -14.809734 -5.267031 -1.382650 39.650586 -1.434220 -2.485670 3.090140 3.457565 -9.513484 5.943051 -11.047926 -11.209560 2.187242 2.363895 -3.404498 0.063482 -3.986505 2.905431 -0.034180 0.087220 -0.074540 0.026030 -9.737665 9.950131 11.753140 12.809499 -1.534645 0.088557 -0.186787 12.734015 0.382065 2.622834 -1.263845 -0.020110 0.016910 0.023620 0.034310 
1.219330 16.711960 -8.464000 -1.233907 26.287150 -6.442427 -15.366725 13.923967 3.251882 -1.557134 0.094885 -2.731601 -6.865936 6.689493 15.419987 0.288503 4.479602 3.069450 -0.030730 -0.093530 -0.013390 17.996765 -11.060367 2.592083 2.676277 2.093017 -17.136029 -9.999396 -1.865606 38.243863 -0.351115 -5.001725 2.553870 -0.060340 0.124410 0.051970 -3.618050 -2.557218 -7.677398 8.863320 -5.073281 15.798611 -5.059443 -3.236372 12.401157 2.920032 -1.124006 -14.967235 -5.683146 -0.743281 40.079597 -1.058990 -2.095080 3.422730 0.729872 -9.641980 6.389179 -4.322547 -5.900892 1.303604 -0.451444 0.197280 -0.189513 -4.028274 2.846580 -0.004880 0.073380 -0.070840 0.017530 -6.455375 10.741552 11.562459 5.516435 -2.250698 0.551385 0.541037 10.317173 0.381906 2.683834 -1.196519 -0.025690 0.006680 0.038510 0.024340 
1.215280 16.743470 -8.447880 -1.451445 22.255379 -6.188379 -15.297747 13.915614 3.174594 -1.311205 -0.218649 -4.418403 -5.852885 6.643584 17.480391 0.284152 4.428221 3.070965 -0.047180 -0.106090 -0.036170 18.026862 -11.219990 2.580829 0.560902 2.325648 -16.928314 -6.274627 -3.133867 36.616344 -0.271478 -4.795592 2.625480 -0.077770 0.129940 0.053340 -3.663034 -2.234283 -7.629207 9.025725 -3.724825 15.649097 -4.396081 -1.949187 12.370764 2.677520 -1.304205 -15.350512 -5.741826 -0.263624 40.255778 -0.577850 -1.848650 4.064070 0.894786 -10.047583 6.956693 -0.649675 -3.131793 0.937437 -4.754431 6.288917 -1.048535 -4.112379 2.783074 -0.015710 0.073320 -0.074770 0.018770 -6.057734 11.774240 11.572504 0.433837 -0.755824 1.159756 3.353478 4.664107 0.055937 2.808157 -1.115504 -0.016260 -0.007420 0.042940 0.035580 
1.208090 16.778730 -8.437700 -1.993501 18.761180 -6.717609 -15.217400 13.900574 3.040464 -0.489788 -0.410148 -5.595736 -4.358342 6.547684 19.759438 0.264794 4.433503 3.048524 -0.023990 -0.072240 -0.020840 18.071488 -11.366811 2.625617 -1.131097 2.563173 -16.236066 -2.290119 -4.530102 35.356901 -0.256064 -4.777498 2.631153 -0.061260 0.116550 0.053610 -3.758587 -1.851367 -7.589037 9.664692 -2.773792 16.061245 -4.123872 -0.955797 12.555239 2.715041 -1.402411 -15.322770 -5.463009 0.415488 41.039636 -0.584760 -1.073870 3.781300 1.322200 -9.901897 7.429732 1.210188 0.061775 0.377241 -6.338493 10.103551 -1.776060 -4.172723 2.726318 -0.011640 0.067540 -0.059790 0.024960 -6.512757 12.269904 10.864329 -3.430973 3.003177 1.338079 5.485288 -1.333629 -0.503363 2.926159 -1.071412 -0.008470 -0.008110 0.027750 0.034220 
